<svg width="113" height="113" viewBox="0 0 113 113" fill="none" xmlns="http://www.w3.org/2000/svg">
<circle cx="56.6905" cy="56.4815" r="55.8585" fill="white"/>
<path d="M53.1011 59.8901V97.4879C53.1011 97.8208 52.7241 98.031 52.419 97.8733L19.067 79.0745C18.9413 78.9869 18.8516 78.8467 18.8516 78.689V41.1088C18.8516 40.7759 19.2285 40.5656 19.5157 40.7233L32.1529 47.8364C32.2965 47.9065 32.3862 48.0642 32.3862 48.2218V67.9843C32.3862 68.142 32.476 68.2822 32.6016 68.3698L38.8843 71.9088C39.1895 72.084 39.5664 71.8738 39.5664 71.5234V52.777C39.5664 52.4442 39.9434 52.2339 40.2306 52.3916L52.8677 59.5047C53.0113 59.5923 53.1011 59.7324 53.1011 59.8901Z" fill="#214FDB"/>
<path d="M94.5308 41.1085V78.7063C94.5308 78.8639 94.441 79.0041 94.2974 79.0917L60.9454 97.8555C60.6403 98.0308 60.2812 97.8205 60.2812 97.4701V59.8899C60.2812 59.7322 60.371 59.592 60.5146 59.5044L93.8666 40.7055C94.1538 40.5478 94.5308 40.7581 94.5308 41.1085Z" fill="#0F3C96"/>
<path d="M90.2746 34.6417L56.9046 53.4406C56.761 53.5106 56.5995 53.5106 56.4559 53.4406L43.8187 46.3275C43.5136 46.1523 43.5136 45.7318 43.8187 45.5741L77.1887 26.7752C77.3323 26.7051 77.4938 26.7051 77.6374 26.7752L90.2746 33.9058C90.5618 34.0635 90.5618 34.484 90.2746 34.6417Z" fill="#2592F9"/>
<path d="M69.5597 22.9756L36.1898 41.7745C36.0462 41.8446 35.8846 41.8446 35.741 41.7745L23.1039 34.6614C22.7987 34.4862 22.7987 34.0657 23.1039 33.908L56.4559 15.0916C56.5995 15.0215 56.761 15.0215 56.9046 15.0916L69.5597 22.2222C69.8469 22.3974 69.8469 22.8179 69.5597 22.9756Z" fill="#2592F9"/>
</svg>
